<?xml version="1.0" encoding="UTF-8"?>
<svg id="Layer_1" xmlns="http://www.w3.org/2000/svg" version="1.1" viewBox="0 0 208.07 34.41">
  <!-- Generator: Adobe Illustrator 29.9.0, SVG Export Plug-In . SVG Version: 2.1.1 Build 14)  -->
  <defs>
    <style>
      .st0 {
        fill: #f1f2f2;
      }

      .st1 {
        fill: #e11837;
      }
    </style>
  </defs>
  <g>
    <polygon class="st1" points="16.92 27.92 16.38 27.42 16.38 19.69 15.87 19.19 10.57 19.19 10.06 19.69 10.06 27.42 9.49 27.92 4.04 27.92 4.04 30.67 4.33 30.92 22.15 30.92 22.44 30.67 22.44 27.92 16.92 27.92"/>
    <polygon class="st0" points="22.15 3.49 4.33 3.49 4.04 3.74 4.04 6.52 9.56 6.52 10.06 7.03 10.06 14.75 10.57 15.26 15.87 15.26 16.38 14.75 16.38 7.03 16.99 6.52 22.44 6.52 22.44 3.74 22.15 3.49"/>
  </g>
  <g>
    <polygon class="st1" points="172.57 18.61 132.37 18.61 132.01 18.94 132.01 20.31 132.37 20.63 172.57 20.63 172.93 20.31 172.93 18.94 172.57 18.61"/>
    <g>
      <polygon class="st0" points="33.85 19.91 34.17 20.27 37.17 20.27 37.53 19.91 37.53 4.36 37.17 4.03 34.17 4.03 33.85 4.36 33.85 19.91"/>
      <polygon class="st0" points="44.71 19.91 45.07 20.27 48.06 20.27 48.39 19.91 48.39 4.36 48.06 4.03 45.07 4.03 44.71 4.36 44.71 19.91"/>
      <polygon class="st0" points="43.7 10.2 38.47 10.2 38.14 10.53 38.14 12.84 38.47 13.2 43.7 13.2 44.02 12.84 44.02 10.53 43.7 10.2"/>
    </g>
    <g>
      <polygon class="st0" points="49.47 4.36 49.8 4.03 52.79 4.03 53.15 4.36 53.15 19.91 52.79 20.27 49.8 20.27 49.47 19.91 49.47 4.36"/>
      <polygon class="st0" points="61.02 4.03 54.09 4.03 53.73 4.36 53.73 6.7 54.09 7.03 61.02 7.03 61.35 6.7 61.35 4.36 61.02 4.03"/>
      <polygon class="st0" points="60.48 10.17 54.09 10.17 53.73 10.49 53.73 12.8 54.09 13.16 60.48 13.16 60.84 12.8 60.84 10.49 60.48 10.17"/>
      <polygon class="st0" points="61.02 17.24 54.09 17.24 53.73 17.57 53.73 19.87 54.09 20.24 61.02 20.24 61.35 19.87 61.35 17.57 61.02 17.24"/>
    </g>
    <g>
      <polygon class="st0" points="62.39 8.11 62.75 7.79 65.75 7.79 66.07 8.11 66.07 19.91 65.75 20.27 62.75 20.27 62.43 19.91 62.39 8.11"/>
      <polygon class="st0" points="74.19 4.03 62.75 4.03 62.43 4.36 62.43 6.96 62.75 7.28 74.19 7.28 74.52 6.96 74.52 4.36 74.19 4.03"/>
    </g>
    <g>
      <polygon class="st0" points="154.56 8.11 154.24 7.79 151.2 7.79 150.88 8.11 150.88 15.94 150.88 16.63 151.2 16.95 154.24 16.95 154.56 16.63 154.56 8.11"/>
      <polygon class="st0" points="158.31 4.03 146.87 4.03 146.55 4.36 146.55 6.96 146.87 7.28 158.31 7.28 158.64 6.96 158.64 4.36 158.31 4.03"/>
    </g>
    <polygon class="st0" points="88.45 20.27 84.26 20.27 83.18 16.81 78.67 16.81 79.53 13.81 82.31 13.81 80.65 7.79 77.01 20.27 73.8 20.27 73.8 17.67 78.52 4.03 82.71 4.03 88.45 20.27"/>
    <polygon class="st0" points="117.5 20.27 113.31 20.27 112.23 16.81 107.75 16.81 108.62 13.81 111.36 13.81 109.7 7.79 106.09 20.27 102.85 20.27 102.85 17.67 107.57 4.03 111.76 4.03 117.5 20.27"/>
    <polygon class="st0" points="204 20.27 199.82 20.27 198.73 16.81 194.22 16.81 195.12 13.81 197.87 13.81 196.21 7.79 192.56 20.27 189.35 20.27 189.35 17.67 194.08 4.03 198.26 4.03 204 20.27"/>
    <g>
      <polygon class="st0" points="135.87 10.92 135.87 4.36 135.51 4.03 132.51 4.03 132.19 4.36 132.19 15.94 135.87 10.92"/>
      <polygon class="st0" points="141.82 9.84 141.82 16.41 142.15 16.77 145.14 16.77 145.5 16.41 145.5 4.83 141.82 9.84"/>
      <polygon class="st0" points="132.22 16.77 135.76 16.77 145.54 4.03 141.86 4.03 132.22 16.77"/>
    </g>
    <g>
      <polygon class="st0" points="159.72 15.94 159.72 4.36 160.05 4.03 163.04 4.03 163.37 4.36 163.37 10.92 159.72 15.94"/>
      <polygon class="st0" points="173 4.83 173 16.41 172.68 16.77 169.68 16.77 169.36 16.41 169.36 9.84 173 4.83"/>
      <polygon class="st0" points="159.72 16.77 163.29 16.77 173.07 4.03 169.39 4.03 159.72 16.77"/>
    </g>
    <g>
      <polygon class="st0" points="177.8 4.36 177.44 4.03 174.45 4.03 174.12 4.36 174.12 19.91 174.45 20.27 177.44 20.27 177.8 19.91 177.8 4.36"/>
      <path class="st0" d="M180.87,11.39s.32-.11,1.15-.79c.97-.79.83-.83,1.44-1.8.36-.58.51-1.73,1.95-1.8,1.01-.04,2.02-.04,2.53,0l.32-.32v-2.35l-.32-.32h-3.57c-2.6,0-3.36,1.41-4.11,3.03-.69,1.48-1.88,2.45-1.88,2.45v4.04l5.77,6.75h4.4l-7.69-8.88Z"/>
    </g>
    <g>
      <polygon class="st0" points="118.51 4.36 118.87 4.03 121.86 4.03 122.19 4.36 122.19 19.91 121.86 20.27 118.87 20.27 118.54 19.91 118.51 4.36"/>
      <path class="st0" d="M125.04,14.71c-1.34,0-1.91-.04-2.13-.07v-3.14c.72.18,2.96.43,4.01-.4.25-.22.76-.61.76-1.62,0-1.08-.47-1.7-.76-1.91-1.08-.87-3.32-.72-4.04-.58l-.07-2.63.25-.32s8.05-1.01,8.05,5.45c0,2.2-1.08,3.43-1.88,4.04-1.23.94-2.85,1.19-4.19,1.19h0Z"/>
    </g>
    <g>
      <g>
        <polygon class="st0" points="88.92 8.11 89.28 7.79 92.27 7.79 92.6 8.11 92.6 8.15 92.6 19.91 92.27 20.27 89.28 20.27 88.92 19.91 88.92 8.11"/>
        <polygon class="st0" points="100.72 4.03 89.28 4.03 88.95 4.36 88.95 6.96 89.28 7.28 100.72 7.28 101.04 6.96 101.04 4.36 100.72 4.03"/>
      </g>
      <path class="st0" d="M95.48,9.99c-1.37,0-2.02.04-2.24.07l.04,3c.76-.14,3.07-.4,4.19.4.29.22.79.58.79,1.55,0,1.05-.51,1.59-.79,1.8-1.12.83-3.43.69-4.19.58l-.07,2.49.25.32s8.37.97,8.37-5.2c0-2.09-1.12-3.25-1.98-3.86-1.3-.94-2.96-1.15-4.37-1.15h0Z"/>
    </g>
    <g>
      <path class="st0" d="M35.15,25.47c-.07,0-.18,0-.25.07-.04.04-.07.14-.07.25v4.11h-1.05v-4.51c0-.18.04-.36.22-.51.22-.18.36-.18.61-.18h3.25c.22,0,.43,0,.61.18.14.14.22.32.22.51v4.47h-1.05v-4.11c0-.07,0-.18-.07-.25s-.18-.07-.25-.07h-2.17v.04Z"/>
      <path class="st0" d="M41.1,29.87c-.25,0-.43,0-.61-.14-.18-.18-.22-.4-.22-.61v-3.68c0-.22.07-.4.18-.54.18-.18.43-.22.65-.22h3.54v.79h-2.96c-.11,0-.22,0-.29.07-.07.07-.07.18-.07.25v1.05h3.25v.79h-3.25v1.23c0,.07.04.14.07.22.07.07.18.07.36.07h2.92v.79l-3.57-.07h0Z"/>
      <path class="st0" d="M46.01,29.87v-4.4c0-.22,0-.4.18-.58s.43-.22.61-.22h2.6c.29,0,.76,0,1.08.32.36.32.4.94.4,1.37s-.04,1.08-.47,1.41c-.22.14-.51.25-.83.25h-2.56v1.84h-1.01ZM49,27.24c.22,0,.51,0,.69-.18.14-.18.18-.51.18-.72,0-.25-.04-.54-.22-.72s-.47-.18-.65-.18h-1.66c-.07,0-.14,0-.25.07-.07.07-.07.14-.07.25v1.48h1.98Z"/>
      <path class="st0" d="M53.15,29.87c-.25,0-.43,0-.61-.14-.18-.18-.22-.4-.22-.61v-3.68c0-.22.07-.4.18-.54.18-.18.43-.22.65-.22h3.54v.79h-2.96c-.11,0-.22,0-.29.07s-.07.18-.07.25v1.05h3.25v.79h-3.25v1.23c0,.07.04.14.07.22.07.07.18.07.36.07h2.92v.79l-3.57-.07h0Z"/>
      <path class="st0" d="M61.53,24.67c.29,0,.72.04,1.01.32.32.29.36.76.36,1.12,0,.29,0,.58-.25.83-.14.18-.32.25-.51.25v.04c.25.04.47.14.61.29.25.25.25.65.25.94,0,.32,0,.76-.32,1.08s-.69.32-1.01.32h-2.63c-.29,0-.51.04-.76-.22-.04-.07-.18-.22-.18-.51v-3.72c0-.18.04-.4.18-.54.14-.18.4-.22.58-.22h2.67ZM61.13,26.88c.22,0,.43,0,.58-.18.04-.04.11-.18.11-.51,0-.14,0-.4-.18-.58-.14-.14-.32-.14-.51-.14h-1.7c-.07,0-.18,0-.25.07s-.07.18-.07.22v1.12h2.02ZM59.11,28.72c0,.18.04.25.07.29.07.07.25.07.32.07h1.62c.14,0,.43,0,.61-.18.11-.14.14-.36.14-.51s0-.4-.11-.51c-.07-.07-.22-.22-.58-.22h-2.09v1.05h0Z"/>
      <path class="st0" d="M69.21,25.18c.58.51.61,1.41.61,2.09,0,.58-.04,1.55-.61,2.09-.58.54-1.55.54-2.2.54s-1.59,0-2.2-.54c-.65-.58-.65-1.52-.65-2.09,0-.72.04-1.55.65-2.09s1.52-.54,2.2-.54c.65,0,1.62,0,2.2.54ZM65.64,28.72c.32.4.76.43,1.41.43.47,0,1.05,0,1.41-.43.22-.25.36-.69.36-1.44s-.14-1.19-.36-1.44c-.36-.43-.94-.43-1.41-.43s-1.05,0-1.41.43c-.22.25-.36.65-.36,1.44s.11,1.15.36,1.44Z"/>
      <path class="st0" d="M71.2,29.08h2.53c.11,0,.47,0,.65-.11.25-.14.25-.43.25-.65,0-.14,0-.43-.22-.58-.04-.04-.22-.14-.61-.14h-2.53v-.79h2.38c.36,0,.61-.04.72-.14.14-.14.14-.4.14-.54,0-.18,0-.43-.18-.58-.14-.11-.32-.11-.47-.11h-2.63v-.79h2.89c.36,0,.79,0,1.15.32.32.29.32.69.32,1.08,0,.32-.04.65-.32.9-.11.11-.29.22-.47.25v.04c.29,0,.58.14.72.4.11.14.14.43.14.83,0,.36-.04.9-.51,1.19-.32.18-.79.22-1.15.22h-2.85l.04-.79h0Z"/>
      <path class="st0" d="M77.12,24.67h1.05v5.2h-1.05v-5.2ZM81.05,29.87l-2.27-1.98c-.32-.29-.36-.54-.36-.69,0-.11.04-.32.29-.58l2.09-1.95h1.3l-2.38,2.13c-.18.14-.29.29-.29.4,0,.14.22.32.36.47l2.6,2.2h-1.34Z"/>
      <path class="st0" d="M84.59,25.22c.22-.43.4-.58.9-.58.47,0,.72.14.9.58l2.06,4.66h-1.08l-.58-1.34h-2.63l-.58,1.34h-1.08l2.09-4.66ZM84.44,27.85h2.13l-.9-2.13c-.04-.07-.07-.22-.14-.22s-.11.14-.14.22l-.94,2.13Z"/>
      <polygon class="st0" points="96.75 29.87 95.7 29.87 95.7 27.6 92.85 27.6 92.85 29.87 91.8 29.87 91.8 24.67 92.85 24.67 92.85 26.8 95.7 26.8 95.7 24.67 96.75 24.67 96.75 29.87"/>
      <path class="st0" d="M99.13,29.87c-.25,0-.43,0-.61-.14-.18-.18-.22-.4-.22-.61v-3.68c0-.22.07-.4.18-.54.18-.18.43-.22.65-.22h3.54v.79h-2.96c-.11,0-.22,0-.29.07-.07.07-.07.18-.07.25v1.05h3.25v.79h-3.25v1.23c0,.07.04.14.07.22.07.07.18.07.36.07h2.92v.79l-3.57-.07h0Z"/>
      <path class="st0" d="M104.04,29.87v-4.44c0-.18,0-.36.18-.54.11-.11.29-.22.54-.22h3.68v.79h-2.96c-.11,0-.29,0-.36.07-.04.07-.04.18-.04.25v4.08h-1.05Z"/>
      <path class="st0" d="M110.03,25.22c.22-.43.4-.58.9-.58.47,0,.72.14.9.58l2.06,4.66h-1.08l-.58-1.34h-2.63l-.58,1.34h-1.08l2.09-4.66ZM109.88,27.85h2.13l-.9-2.13c-.04-.07-.07-.22-.14-.22s-.11.14-.14.22l-.94,2.13Z"/>
      <path class="st0" d="M119.41,25.47h-3.21c-.11,0-.22,0-.29.07-.07.07-.07.18-.07.25v1.08h2.6c.29,0,.69.04.97.4.22.25.29.65.29,1.12,0,.69-.14,1.01-.29,1.15-.11.11-.4.32-.94.32h-2.96c-.29,0-.43-.11-.54-.22-.14-.14-.14-.32-.14-.47v-3.75c0-.18.04-.4.18-.58.11-.07.25-.22.58-.22h3.86l-.04.83h0ZM115.8,28.72c0,.22.04.25.04.29.07.11.29.11.4.11h1.66c.18,0,.4,0,.54-.14.18-.14.14-.43.14-.61s0-.4-.18-.58c-.14-.14-.36-.14-.54-.14h-2.09l.04,1.08h0Z"/>
      <path class="st0" d="M122.48,25.22c.22-.43.4-.58.9-.58.47,0,.72.14.9.58l2.06,4.66h-1.08l-.58-1.34h-2.63l-.58,1.34h-1.08l2.09-4.66ZM122.3,27.85h2.13l-.9-2.13c-.04-.07-.07-.22-.14-.22s-.11.14-.14.22l-.94,2.13Z"/>
      <path class="st0" d="M127.21,29.87v-4.4c0-.22,0-.4.18-.58s.43-.22.61-.22h2.6c.29,0,.76,0,1.08.32.36.32.4.94.4,1.37s-.04,1.08-.47,1.41c-.22.14-.51.25-.83.25h-2.56v1.84h-1.01ZM130.2,27.24c.22,0,.51,0,.69-.18.14-.18.18-.51.18-.72,0-.25-.04-.54-.22-.72s-.47-.18-.65-.18h-1.66c-.07,0-.14,0-.25.07-.07.07-.07.14-.07.25v1.48h1.98Z"/>
      <path class="st0" d="M137.74,29.87l.04-3.93c0-.07,0-.18-.07-.18s-.11.11-.22.25l-2.27,3.46c-.14.22-.32.47-.87.47-.79,0-.79-.61-.79-.87v-4.4h1.05l-.04,3.86c0,.11,0,.25.11.25.07,0,.11-.07.14-.14l2.2-3.43c.29-.47.54-.58.94-.58.83,0,.83.69.83.94v4.33l-1.05-.04h0Z"/>
      <polygon class="st0" points="141.93 29.87 141.93 25.47 139.8 25.47 139.8 24.67 145.14 24.67 145.14 25.47 142.98 25.47 142.98 29.87 141.93 29.87"/>
      <polygon class="st0" points="151.1 29.87 150.05 29.87 150.05 27.6 147.2 27.6 147.2 29.87 146.15 29.87 146.15 24.67 147.2 24.67 147.2 26.8 150.05 26.8 150.05 24.67 151.1 24.67 151.1 29.87"/>
      <path class="st0" d="M153.69,24.67v2.13h2.6c.25,0,.79.04,1.08.51.14.25.22.69.22,1.05,0,.72-.22,1.05-.25,1.08-.11.14-.4.43-1.08.43h-2.92c-.29,0-.43-.14-.51-.22-.14-.18-.18-.4-.18-.58v-4.4h1.05ZM153.69,28.75s0,.18.04.25c.07.07.18.07.29.07h1.66c.07,0,.43,0,.61-.14.22-.14.22-.43.22-.65,0-.25,0-.47-.22-.61-.14-.11-.32-.11-.51-.11h-2.06l-.04,1.19h0ZM158.17,29.87v-5.2h1.05v5.2h-1.05Z"/>
      <polygon class="st0" points="164.3 29.87 162.82 27.92 161.38 29.87 160.15 29.87 162.25 27.24 160.19 24.67 161.42 24.67 162.82 26.55 164.23 24.67 165.46 24.67 163.4 27.24 165.53 29.87 164.3 29.87"/>
      <path class="st0" d="M168.92,29.87v-4.44c0-.18,0-.36.18-.54.11-.11.29-.22.54-.22h3.68v.79h-2.96c-.11,0-.29,0-.36.07-.04.07-.04.18-.04.25v4.08h-1.05Z"/>
      <path class="st0" d="M174.34,29.87v-4.4c0-.22,0-.4.18-.58s.43-.22.61-.22h2.6c.29,0,.76,0,1.08.32.36.32.4.94.4,1.37s-.04,1.08-.47,1.41c-.22.14-.51.25-.83.25h-2.56v1.84h-1.01ZM177.37,27.24c.22,0,.51,0,.69-.18.14-.18.18-.51.18-.72,0-.25-.04-.54-.22-.72s-.47-.18-.65-.18h-1.66c-.07,0-.14,0-.25.07-.07.07-.07.14-.07.25v1.48h1.98Z"/>
      <polygon class="st0" points="181.59 29.87 182.28 28.72 179.93 24.67 181.05 24.67 182.78 27.85 184.48 24.67 185.6 24.67 182.71 29.87 181.59 29.87"/>
      <path class="st0" d="M186.28,29.08h2.53c.11,0,.47,0,.65-.11.25-.14.25-.43.25-.65,0-.14,0-.43-.22-.58-.04-.04-.22-.14-.61-.14h-2.53v-.79h2.38c.36,0,.61-.04.72-.14.14-.14.14-.4.14-.54,0-.18,0-.43-.18-.58-.14-.11-.32-.11-.47-.11h-2.63v-.79h2.89c.36,0,.79,0,1.15.32.32.29.32.69.32,1.08,0,.32-.04.65-.32.9-.11.11-.29.22-.47.25v.04c.29,0,.58.14.72.4.11.14.14.43.14.83,0,.36-.04.9-.51,1.19-.32.18-.79.22-1.19.22h-2.85l.07-.79h0Z"/>
      <path class="st0" d="M197.07,25.18c.58.51.61,1.41.61,2.09,0,.58-.04,1.55-.61,2.09-.58.54-1.55.54-2.2.54s-1.59,0-2.2-.54c-.65-.58-.65-1.52-.65-2.09,0-.72.04-1.55.65-2.09s1.52-.54,2.2-.54c.65,0,1.62,0,2.2.54ZM193.5,28.72c.32.4.76.43,1.41.43.47,0,1.05,0,1.41-.43.22-.25.36-.69.36-1.44s-.14-1.19-.36-1.44c-.36-.43-.94-.43-1.41-.43s-1.05,0-1.41.43c-.22.25-.36.65-.36,1.44s.14,1.15.36,1.44Z"/>
      <path class="st0" d="M202.56,24.67c.29,0,.72.04,1.01.32.32.29.36.76.36,1.12,0,.29,0,.58-.25.83-.14.18-.32.25-.51.25v.04c.25.04.47.14.61.29.25.25.25.65.25.94,0,.32,0,.76-.32,1.08s-.69.32-1.01.32h-2.63c-.29,0-.51.04-.76-.22-.04-.07-.18-.22-.18-.51v-3.72c0-.18.04-.4.18-.54.14-.18.4-.22.58-.22h2.67ZM202.16,26.88c.22,0,.43,0,.58-.18.04-.04.11-.18.11-.51,0-.14,0-.4-.18-.58-.14-.14-.32-.14-.51-.14h-1.7c-.07,0-.18,0-.25.07s-.07.18-.07.22v1.12h2.02ZM200.14,28.72c0,.18.04.25.07.29.07.07.25.07.32.07h1.62c.14,0,.43,0,.61-.18.11-.14.14-.36.14-.51s0-.4-.11-.51c-.07-.07-.22-.22-.58-.22h-2.09v1.05h0Z"/>
    </g>
  </g>
</svg>